<mxfile host="app.diagrams.net" modified="2022-01-25T10:27:43.737Z" agent="5.0 (Macintosh; Intel Mac OS X 10_15_7) AppleWebKit/537.36 (KHTML, like Gecko) Chrome/97.0.4692.71 Safari/537.36" etag="79Fq1Z8GZD96PRXMdEZM" version="16.1.2" type="github">
  <diagram name="Page-1" id="ad52d381-51e7-2e0d-a935-2d0ddd2fd229">
    <mxGraphModel dx="1426" dy="684" grid="1" gridSize="10" guides="1" tooltips="1" connect="1" arrows="1" fold="1" page="1" pageScale="1" pageWidth="1100" pageHeight="850" background="none" math="0" shadow="0">
      <root>
        <mxCell id="0" />
        <mxCell id="1" parent="0" />
        <mxCell id="Uw7XSQVsqlqbEhKBdOQr-7" value="" style="whiteSpace=wrap;html=1;aspect=fixed;" vertex="1" parent="1">
          <mxGeometry x="10" y="100" width="280" height="280" as="geometry" />
        </mxCell>
        <mxCell id="Uw7XSQVsqlqbEhKBdOQr-4" style="edgeStyle=orthogonalEdgeStyle;orthogonalLoop=1;jettySize=auto;html=1;entryX=0;entryY=0.5;entryDx=0;entryDy=0;curved=1;" edge="1" parent="1" source="Uw7XSQVsqlqbEhKBdOQr-1" target="Uw7XSQVsqlqbEhKBdOQr-2">
          <mxGeometry relative="1" as="geometry" />
        </mxCell>
        <mxCell id="Uw7XSQVsqlqbEhKBdOQr-1" value="lineitem" style="ellipse;whiteSpace=wrap;html=1;aspect=fixed;" vertex="1" parent="1">
          <mxGeometry x="30" y="210" width="80" height="80" as="geometry" />
        </mxCell>
        <mxCell id="Uw7XSQVsqlqbEhKBdOQr-6" style="edgeStyle=orthogonalEdgeStyle;curved=1;orthogonalLoop=1;jettySize=auto;html=1;exitX=0.5;exitY=1;exitDx=0;exitDy=0;entryX=0.5;entryY=0;entryDx=0;entryDy=0;" edge="1" parent="1" source="Uw7XSQVsqlqbEhKBdOQr-2" target="Uw7XSQVsqlqbEhKBdOQr-3">
          <mxGeometry relative="1" as="geometry" />
        </mxCell>
        <mxCell id="Uw7XSQVsqlqbEhKBdOQr-2" value="orders" style="ellipse;whiteSpace=wrap;html=1;aspect=fixed;" vertex="1" parent="1">
          <mxGeometry x="155" y="150" width="80" height="80" as="geometry" />
        </mxCell>
        <mxCell id="Uw7XSQVsqlqbEhKBdOQr-3" value="customer" style="ellipse;whiteSpace=wrap;html=1;aspect=fixed;" vertex="1" parent="1">
          <mxGeometry x="140" y="260" width="80" height="80" as="geometry" />
        </mxCell>
        <mxCell id="Uw7XSQVsqlqbEhKBdOQr-8" value="" style="whiteSpace=wrap;html=1;aspect=fixed;" vertex="1" parent="1">
          <mxGeometry x="340" y="100" width="280" height="280" as="geometry" />
        </mxCell>
        <mxCell id="Uw7XSQVsqlqbEhKBdOQr-14" value="" style="whiteSpace=wrap;html=1;aspect=fixed;" vertex="1" parent="1">
          <mxGeometry x="660" y="100" width="280" height="280" as="geometry" />
        </mxCell>
        <mxCell id="Uw7XSQVsqlqbEhKBdOQr-16" value="lineitem" style="ellipse;whiteSpace=wrap;html=1;aspect=fixed;" vertex="1" parent="1">
          <mxGeometry x="750" y="210" width="80" height="80" as="geometry" />
        </mxCell>
        <mxCell id="Uw7XSQVsqlqbEhKBdOQr-18" style="edgeStyle=orthogonalEdgeStyle;orthogonalLoop=1;jettySize=auto;html=1;entryX=0;entryY=0.5;entryDx=0;entryDy=0;curved=1;" edge="1" parent="1" source="Uw7XSQVsqlqbEhKBdOQr-19" target="Uw7XSQVsqlqbEhKBdOQr-20">
          <mxGeometry relative="1" as="geometry" />
        </mxCell>
        <mxCell id="Uw7XSQVsqlqbEhKBdOQr-19" value="lineitem" style="ellipse;whiteSpace=wrap;html=1;aspect=fixed;" vertex="1" parent="1">
          <mxGeometry x="375" y="210" width="80" height="80" as="geometry" />
        </mxCell>
        <mxCell id="Uw7XSQVsqlqbEhKBdOQr-20" value="orders" style="ellipse;whiteSpace=wrap;html=1;aspect=fixed;" vertex="1" parent="1">
          <mxGeometry x="505" y="210" width="80" height="80" as="geometry" />
        </mxCell>
        <mxCell id="Uw7XSQVsqlqbEhKBdOQr-22" value="" style="shape=singleArrow;whiteSpace=wrap;html=1;" vertex="1" parent="1">
          <mxGeometry x="290" y="220" width="50" height="60" as="geometry" />
        </mxCell>
        <mxCell id="Uw7XSQVsqlqbEhKBdOQr-23" value="" style="shape=singleArrow;whiteSpace=wrap;html=1;" vertex="1" parent="1">
          <mxGeometry x="620" y="230" width="40" height="60" as="geometry" />
        </mxCell>
      </root>
    </mxGraphModel>
  </diagram>
</mxfile>
